<?xml version="1.0" encoding="UTF-8"?>
<svg id="Layer_2" data-name="Layer 2" xmlns="http://www.w3.org/2000/svg" xmlns:xlink="http://www.w3.org/1999/xlink" viewBox="0 0 161.92 67.26">
  <defs>
    <style>
      .cls-1 {
        fill: url(#linear-gradient);
      }

      .cls-2 {
        letter-spacing: .04em;
      }

      .cls-3 {
        fill: #f7941d;
      }

      .cls-4 {
        fill: #fff;
      }

      .cls-5, .cls-6 {
        fill: #231f20;
      }

      .cls-7 {
        font-size: 28px;
        letter-spacing: .05em;
      }

      .cls-8 {
        font-size: 9px;
      }

      .cls-6 {
        font-family: BradleyDJR-Regular, 'Bradley DJR';
      }

      .cls-9 {
        letter-spacing: .05em;
      }

      .cls-10 {
        letter-spacing: .04em;
      }
    </style>
    <linearGradient id="linear-gradient" x1="80.96" y1="26.05" x2="80.96" y2="6.97" gradientUnits="userSpaceOnUse">
      <stop offset=".09" stop-color="#ed1c24"/>
      <stop offset=".64" stop-color="#fbb040"/>
    </linearGradient>
  </defs>
  <g id="FINAl">
    <path class="cls-1" d="m88.71,18.03c-.05-.37,0,0-.14-.36-.15-.38-.34-.74-.73-1.03-.1-.07-.36-.23-.55-.23.15.32.36.62.24.94-.18.46-.54.81-1.3.89-.56.06-1.01-.02-1.36-.36-.29-.28-.34-.6-.29-.95.07-.44.3-.85.6-1.24.35-.45.71-.88.89-1.38.18-.49.18-.96-.24-1.41-.18-.19-.38-.36-.65-.49,0,.04.02.07.05.1.2.2.32.41.33.66,0,.39-.62.95-1.4.82-.53-.09-.93-.29-1.1-.64-.16-.35-.07-.69.11-1.02.21-.39.44-.78.65-1.18.14-.27.19-.54.11-.82-.12-.46-.6-.75-1.08-1.04-.1-.06-.22-.11-.33-.17,0,.04.02.07.03.1.09.19.22.37.25.57.05.3.03.61-.17.89-.16.23-.36.44-.74.53-.57.13-.99.01-.96-.42.02-.25.04-.49.03-.74-.01-.24-.16-.44-.36-.64-.26-.24-.53-.48-.76-.74-.21-.24-.27-.52-.21-.79.07-.32.28-.59.55-.85.1-.1.21-.19.31-.28-.06,0-.11,0-.14.02-.28.17-.59.32-.83.52-.51.4-.87.86-1.1,1.37-.13.29-.21.59-.26.89-.04.29,0,.57.06.85.09.39.32.75.54,1.11.25.42.39.86.41,1.31,0,.12,0,.24-.04.35-.06.22-.1.44-.22.65-.11.19-.29.36-.47.53-.18.17-.45.28-.78.29-.35.01-.57-.14-.75-.31-.27-.25-.46-.53-.82-.74-.3-.17-.64-.27-1.04-.32.04.04.06.08.09.1.54.44.7.96.59,1.51-.1.45-.38.85-.76,1.23-.39.39-.79.79-1.18,1.18-.3.31-.47.66-.55,1.03-.02.09-.05.19-.07.28v.49s.03.03.03.05c.04.19.06.38.11.57.11.47.94,1.28,1.24,1.7.06.08,6.2,5.29,6.27,5.37l6.16-5.12c.34-.48.83-1.55.89-2.09.04-.34.85-1.2.8-1.54Z"/>
    <path class="cls-5" d="m82.18,28.67c.36.37.67.68.79.73.32.15.68.26.97-.15.29-.41.32-.59.32-.59l-2.62-2.14s5.41-3.97,5.84-4.74c.43-.77,5.77-14.26,5.77-14.26l.5.09.72-2.57-.59-.23.99-2.3-1.04-.23-1.08,2.89-10.2-2.89,2.21-.86V0l-3.74,1.26L77.33,0v1.31l1.76.86-9.79,2.84-.77-3.07-1.49.45.68,1.99-.68.18.99,3.74h.5s5.23,13.62,5.55,14.03c.32.41,5.35,4.2,5.35,4.2l-2.14,1.89s-.38,1.6.88.98c.43-.21.87-.53,1.26-.87l1.18-.92.63.42.95.64Zm-6.97-7.42l-1.46-3.77-4.23-10.93,11.5-3.7,11.5,3.7-5.86,14.39-5.86,4.87-5.59-4.56Z"/>
    <polygon class="cls-4" points="73.61 17.43 75.22 21.6 80.66 25.81 86.44 21.13 88.27 16.66 88.31 16.34 86.18 21.05 80.67 25.55 75.46 21.47 73.66 17.11 73.61 17.43"/>
    <path class="cls-5" d="m94.88,2.53l-1.04-.23-1.08,2.89-10.2-2.89,2.21-.86V0l-3.74,1.26-3.7-1.26v1.31l1.76.86-9.79,2.84-.77-3.07-1.49.45.68,1.99-.68.18.99,3.74h.5s5.23,13.62,5.55,14.03c.32.41,5.35,4.2,5.35,4.2l-2.14,1.89s-.38,1.6.88.98c.43-.21.87-.53,1.26-.87l1.18-.92.63.42.95.64c.36.37.67.68.79.73.32.15.68.26.97-.15.29-.41.32-.59.32-.59l-2.62-2.14s5.41-3.97,5.84-4.74c.43-.77,5.77-14.26,5.77-14.26l.5.09.72-2.57-.59-.23.99-2.3Zm-8.27,18.6l-5.78,4.68h-.01s-.01,0-.01,0l-.41-.34-5.16-3.99-1.58-4.27-4.12-10.66,11.5-3.7,11.5,3.7-4.09,10.04"/>
    <text class="cls-6" transform="translate(22.26 49.76)"><tspan class="cls-7"><tspan x="0" y="0">Burning Man</tspan></tspan><tspan class="cls-8"><tspan class="cls-2" x="46.98" y="11">e</tspan><tspan class="cls-9" x="49.91" y="11">s</tspan><tspan class="cls-10" x="52.66" y="11">t.</tspan><tspan class="cls-9" x="56.85" y="11" xml:space="preserve"> 1986</tspan></tspan></text>
    <path class="cls-3" d="m75,16.07c-.39.39-.71.7-1.09,1.09l1.51,4.1,5.37,4.25,5.5-4.5,1.86-4.1c-.09-.11-.19-.21-.32-.31-.1-.07-.36-.23-.55-.23.15.32.36.62.24.94-.18.46-.54.81-1.3.89-.56.06-1.01-.02-1.36-.36-.29-.28-.34-.6-.29-.95.07-.44.3-.85.6-1.24.35-.45.71-.88.89-1.38.18-.49.18-.96-.24-1.41-.18-.19-.38-.36-.65-.49,0,.04.02.07.05.1.2.2.32.41.33.66,0,.39-.62.95-1.4.82-.53-.09-.93-.29-1.1-.64-.16-.35-.07-.69.11-1.02.21-.39.44-.78.65-1.18.14-.27.19-.54.11-.82-.12-.46-.6-.75-1.08-1.04-.1-.06-.22-.11-.33-.17,0,.04.02.07.03.1.09.19.22.37.25.57.05.3.03.61-.17.89-.16.23-.36.44-.74.53-.57.13-.99.01-.96-.42.02-.25.04-.49.03-.74-.01-.24-.16-.44-.36-.64-.26-.24-.53-.48-.76-.74-.21-.24-.27-.52-.21-.79.07-.32.28-.59.55-.85.1-.1.21-.19.31-.28-.06,0-.11,0-.14.02-.28.17-.59.32-.83.52-.51.4-.87.86-1.1,1.37-.13.29-.21.59-.26.89-.04.29,0,.57.06.85.09.39.32.75.54,1.11.25.42.39.86.41,1.31,0,.12,0,.24-.04.35-.06.22-.1.44-.22.65-.11.19-.29.36-.47.53-.18.17-.45.28-.78.29-.35.01-.57-.14-.75-.31-.27-.25-.46-.53-.82-.74-.3-.17-.64-.27-1.04-.32.04.04.06.08.09.1.54.44.7.96.59,1.51-.1.45-.38.85-.76,1.23Z"/>
  </g>
</svg>